<svg width="608" height="531" viewBox="0 0 608 531" fill="none" xmlns="http://www.w3.org/2000/svg">
<g clip-path="url(#clip0_64_3044)">
<path d="M153.4 156.988C153.4 156.988 166.994 142.94 169.376 126.14C171.758 109.339 186.971 105.353 197.37 108.548C207.769 111.742 217.384 140.842 243.018 140.689C268.653 140.537 311.81 119.743 313.408 114.146C315.005 108.548 317.409 98.1731 335.005 95.7554C352.6 93.3378 353.399 76.5593 378.997 76.5593C404.595 76.5593 449.655 80.8501 453.656 82.4474C457.658 84.0447 476.56 86.7019 480.525 108.86C480.525 108.86 483.742 118.182 478.143 144.552C472.544 170.921 511.737 187.721 521.337 187.721C530.937 187.721 558.931 246.899 527.734 297.278C496.537 347.657 500.539 366.846 467.744 346.858C434.95 326.871 438.152 347.657 434.95 326.864C431.747 306.07 415.757 317.266 410.986 306.07C406.214 294.875 422.982 272.484 411.784 267.685C400.586 262.886 372.57 271.686 366.993 242.899C361.416 214.112 326.995 248.497 343.029 274.888C359.063 301.279 325.433 281.284 325.433 297.278C325.433 313.272 306.24 326.065 315.833 338.059C325.426 350.053 350.233 417.232 273.446 415.627C196.659 414.023 239.845 429.226 223.854 430.823C207.864 432.42 198.99 410.828 173.392 410.828C147.794 410.828 59.816 406.037 62.2124 367.652C64.6089 329.267 87.6871 336.433 87.3458 302.876C87.0045 269.319 48.2842 230.498 106.837 195.112C165.389 159.725 153.4 156.988 153.4 156.988Z" fill="#529B40"/>
<path d="M145.826 68.1375H22.018V357.219H145.826V68.1375Z" fill="url(#paint0_linear_64_3044)"/>
<path d="M87.3458 119.838C98.1103 119.838 106.837 111.113 106.837 100.351C106.837 89.589 98.1103 80.8646 87.3458 80.8646C76.5813 80.8646 67.8549 89.589 67.8549 100.351C67.8549 111.113 76.5813 119.838 87.3458 119.838Z" fill="#A4DA96"/>
<path d="M100.265 140.689H37.0646C35.2117 140.689 33.7096 142.191 33.7096 144.043V145.067C33.7096 146.92 35.2117 148.421 37.0646 148.421H100.265C102.118 148.421 103.62 146.92 103.62 145.067V144.043C103.62 142.191 102.118 140.689 100.265 140.689Z" fill="#A4DA96"/>
<path d="M133.858 140.689H123.314C121.461 140.689 119.959 142.191 119.959 144.043V145.067C119.959 146.92 121.461 148.421 123.314 148.421H133.858C135.711 148.421 137.213 146.92 137.213 145.067V144.043C137.213 142.191 135.711 140.689 133.858 140.689Z" fill="#A4DA96"/>
<path d="M78.7259 156.988H37.0646C35.2117 156.988 33.7096 158.49 33.7096 160.343V161.366C33.7096 163.219 35.2117 164.72 37.0646 164.72H78.7259C80.5788 164.72 82.0809 163.219 82.0809 161.366V160.343C82.0809 158.49 80.5788 156.988 78.7259 156.988Z" fill="#A4DA96"/>
<path d="M133.851 156.988H131.934C130.081 156.988 128.579 158.49 128.579 160.343V161.366C128.579 163.219 130.081 164.72 131.934 164.72H133.851C135.704 164.72 137.206 163.219 137.206 161.366V160.343C137.206 158.49 135.704 156.988 133.851 156.988Z" fill="#A4DA96"/>
<path d="M108.187 175.103H37.6673C35.8144 175.103 34.3123 176.604 34.3123 178.457V179.481C34.3123 181.333 35.8144 182.835 37.6673 182.835H108.187C110.04 182.835 111.542 181.333 111.542 179.481V178.457C111.542 176.604 110.04 175.103 108.187 175.103Z" fill="#A4DA96"/>
<path d="M134.454 175.103H128.789C126.936 175.103 125.434 176.604 125.434 178.457V179.481C125.434 181.333 126.936 182.835 128.789 182.835H134.454C136.306 182.835 137.808 181.333 137.808 179.481V178.457C137.808 176.604 136.306 175.103 134.454 175.103Z" fill="#A4DA96"/>
<path d="M95.726 191.25H37.6673C35.8144 191.25 34.3123 192.751 34.3123 194.604V195.627C34.3123 197.48 35.8144 198.982 37.6673 198.982H95.726C97.5789 198.982 99.0809 197.48 99.0809 195.627V194.604C99.0809 192.751 97.5789 191.25 95.726 191.25Z" fill="#A4DA96"/>
<path d="M134.461 191.25H123.917C122.064 191.25 120.562 192.751 120.562 194.604V195.627C120.562 197.48 122.064 198.982 123.917 198.982H134.461C136.314 198.982 137.816 197.48 137.816 195.627V194.604C137.816 192.751 136.314 191.25 134.461 191.25Z" fill="#A4DA96"/>
<path d="M69.576 208.151H37.6673C35.8144 208.151 34.3123 209.653 34.3123 211.506V212.529C34.3123 214.382 35.8144 215.884 37.6673 215.884H69.576C71.4289 215.884 72.9309 214.382 72.9309 212.529V211.506C72.9309 209.653 71.4289 208.151 69.576 208.151Z" fill="#A4DA96"/>
<path d="M134.461 208.151H117.359C115.506 208.151 114.004 209.653 114.004 211.506V212.529C114.004 214.382 115.506 215.884 117.359 215.884H134.461C136.314 215.884 137.816 214.382 137.816 212.529V211.506C137.816 209.653 136.314 208.151 134.461 208.151Z" fill="#A4DA96"/>
<path d="M94.1864 224.451H37.6673C35.8144 224.451 34.3123 225.952 34.3123 227.805V228.828C34.3123 230.681 35.8144 232.183 37.6673 232.183H94.1864C96.0393 232.183 97.5414 230.681 97.5414 228.828V227.805C97.5414 225.952 96.0393 224.451 94.1864 224.451Z" fill="#A4DA96"/>
<path d="M134.461 224.451H123.917C122.064 224.451 120.562 225.952 120.562 227.805V228.828C120.562 230.681 122.064 232.183 123.917 232.183H134.461C136.314 232.183 137.816 230.681 137.816 228.828V227.805C137.816 225.952 136.314 224.451 134.461 224.451Z" fill="#A4DA96"/>
<path d="M353.784 347.091C351.528 342.912 350.646 338.129 351.263 333.42C351.879 328.712 353.963 324.317 357.219 320.859C361.815 315.966 365.555 309.613 365.25 302.055C364.524 283.179 382.621 276.39 385.642 284.696C388.663 293.002 387.152 321.723 399.229 323.952C411.305 326.181 429.438 339.925 415.088 357.219C400.739 374.513 394.704 347.352 400.739 374.534C406.774 401.717 372.047 424.093 363.703 403.459C355.36 382.826 329.761 390.129 347.851 376.045C359.935 366.628 358.388 355.687 353.784 347.091Z" fill="#529B40"/>
<path d="M435.865 126.154L437.854 124.049" stroke="white" stroke-miterlimit="10" stroke-linecap="round"/>
<path d="M441.021 120.702C443.969 117.572 447.898 113.383 452.044 108.933" stroke="white" stroke-miterlimit="10" stroke-linecap="round" stroke-dasharray="6.35 6.35"/>
<path d="M453.613 107.241L455.588 105.107" stroke="white" stroke-miterlimit="10" stroke-linecap="round"/>
<path d="M455.588 108.867C458.668 108.867 461.165 106.371 461.165 103.292C461.165 100.212 458.668 97.7157 455.588 97.7157C452.508 97.7157 450.011 100.212 450.011 103.292C450.011 106.371 452.508 108.867 455.588 108.867Z" fill="white"/>
<path d="M429.452 137.72C432.533 137.72 435.03 135.223 435.03 132.144C435.03 129.064 432.533 126.568 429.452 126.568C426.372 126.568 423.875 129.064 423.875 132.144C423.875 135.223 426.372 137.72 429.452 137.72Z" fill="white"/>
<path d="M155.15 274.51C155.15 274.51 155.433 273.544 156.123 271.78" stroke="white" stroke-miterlimit="10" stroke-linecap="round"/>
<path d="M158.476 266.437C169.594 243.247 213.049 176.896 351.946 157.751" stroke="white" stroke-miterlimit="10" stroke-linecap="round" stroke-dasharray="8.03 8.03"/>
<path d="M354.851 157.359L357.756 156.988M149.529 280.485C149.529 280.485 150.059 281.378 151.032 282.961" stroke="white" stroke-miterlimit="10" stroke-linecap="round"/>
<path d="M154.271 288.13C162.775 301.518 181.307 329.027 198.111 342.785" stroke="white" stroke-miterlimit="10" stroke-linecap="round" stroke-dasharray="8.42 8.42"/>
<path d="M200.522 344.688C201.314 345.283 202.105 345.842 202.889 346.357" stroke="white" stroke-miterlimit="10" stroke-linecap="round"/>
<path d="M149.529 304.575C163.298 304.575 174.459 293.416 174.459 279.65C174.459 265.885 163.298 254.726 149.529 254.726C135.761 254.726 124.599 265.885 124.599 279.65C124.599 293.416 135.761 304.575 149.529 304.575Z" stroke="white" stroke-width="4" stroke-miterlimit="10"/>
<path d="M149.529 290.374C154.992 290.374 159.42 285.946 159.42 280.485C159.42 275.024 154.992 270.597 149.529 270.597C144.067 270.597 139.638 275.024 139.638 280.485C139.638 285.946 144.067 290.374 149.529 290.374Z" fill="white"/>
<path d="M402.409 178.965C416.178 178.965 427.339 167.806 427.339 154.041C427.339 140.275 416.178 129.116 402.409 129.116C388.641 129.116 377.479 140.275 377.479 154.041C377.479 167.806 388.641 178.965 402.409 178.965Z" stroke="white" stroke-width="4" stroke-miterlimit="10"/>
<path d="M402.409 164.771C407.872 164.771 412.3 160.344 412.3 154.883C412.3 149.422 407.872 144.994 402.409 144.994C396.947 144.994 392.519 149.422 392.519 154.883C392.519 160.344 396.947 164.771 402.409 164.771Z" fill="white"/>
<path d="M366.768 161.729C369.848 161.729 372.345 159.233 372.345 156.153C372.345 153.074 369.848 150.578 366.768 150.578C363.688 150.578 361.191 153.074 361.191 156.153C361.191 159.233 363.688 161.729 366.768 161.729Z" fill="white"/>
<path d="M202.889 351.941C205.97 351.941 208.466 349.444 208.466 346.365C208.466 343.285 205.97 340.789 202.889 340.789C199.809 340.789 197.312 343.285 197.312 346.365C197.312 349.444 199.809 351.941 202.889 351.941Z" fill="white"/>
<path d="M277.04 346.365H218.771C217.845 346.365 217.094 347.115 217.094 348.042V348.55C217.094 349.476 217.845 350.227 218.771 350.227H277.04C277.967 350.227 278.718 349.476 278.718 348.55V348.042C278.718 347.115 277.967 346.365 277.04 346.365Z" fill="#F8F8FF"/>
<path d="M277.04 357.219H218.771C217.845 357.219 217.094 357.97 217.094 358.896V359.404C217.094 360.33 217.845 361.081 218.771 361.081H277.04C277.967 361.081 278.718 360.33 278.718 359.404V358.896C278.718 357.97 277.967 357.219 277.04 357.219Z" fill="#F8F8FF"/>
<path d="M277.04 370.897H218.771C217.845 370.897 217.094 371.648 217.094 372.574V373.082C217.094 374.009 217.845 374.759 218.771 374.759H277.04C277.967 374.759 278.718 374.009 278.718 373.082V372.574C278.718 371.648 277.967 370.897 277.04 370.897Z" fill="#F8F8FF"/>
<path d="M254.877 381.795H218.771C217.845 381.795 217.094 382.546 217.094 383.472V383.98C217.094 384.906 217.845 385.657 218.771 385.657H254.877C255.804 385.657 256.555 384.906 256.555 383.98V383.472C256.555 382.546 255.804 381.795 254.877 381.795Z" fill="#F8F8FF"/>
<path d="M521.947 111.285H463.678C462.751 111.285 462 112.036 462 112.962V113.47C462 114.397 462.751 115.147 463.678 115.147H521.947C522.873 115.147 523.624 114.397 523.624 113.47V112.962C523.624 112.036 522.873 111.285 521.947 111.285Z" fill="#C2E7B9"/>
<path d="M521.947 122.139H463.678C462.751 122.139 462 122.89 462 123.816V124.325C462 125.251 462.751 126.002 463.678 126.002H521.947C522.873 126.002 523.624 125.251 523.624 124.325V123.816C523.624 122.89 522.873 122.139 521.947 122.139Z" fill="#C2E7B9"/>
<path d="M521.947 135.818H463.678C462.751 135.818 462 136.568 462 137.495V138.003C462 138.929 462.751 139.68 463.678 139.68H521.947C522.873 139.68 523.624 138.929 523.624 138.003V137.495C523.624 136.568 522.873 135.818 521.947 135.818Z" fill="#C2E7B9"/>
<path d="M499.784 146.715H463.678C462.751 146.715 462 147.466 462 148.392V148.9C462 149.827 462.751 150.578 463.678 150.578H499.784C500.71 150.578 501.461 149.827 501.461 148.9V148.392C501.461 147.466 500.71 146.715 499.784 146.715Z" fill="#C2E7B9"/>
<path d="M208.466 346.357C208.466 346.357 209.476 346.524 211.371 346.757" stroke="#A4DA96" stroke-miterlimit="10"/>
<path d="M217.014 347.374C256.954 351.178 422.851 355.955 403.077 170.492" stroke="#A4DA96" stroke-miterlimit="10" stroke-dasharray="7.86 7.86"/>
<path d="M402.78 167.646C402.671 166.688 402.554 165.73 402.431 164.742" stroke="#A4DA96" stroke-miterlimit="10"/>
<path d="M519.884 167.044C519.884 167.044 508.084 155.043 519.158 146.548C530.233 138.054 533.203 138.562 533.297 147.027C533.392 155.493 525.106 156.778 530.124 165.701C535.142 174.624 529.071 176.961 525.316 175.023C521.562 173.084 519.884 167.044 519.884 167.044ZM517.88 169.788C517.88 169.788 518.606 176.322 524.51 179.132C530.414 181.942 540.436 188.57 539.55 193.834C538.664 199.098 526.929 184.396 523.254 185.688C519.579 186.98 511.548 182.167 509.137 175.988C506.726 169.81 507.183 164.895 510.829 164.938C514.474 164.982 517.88 169.788 517.88 169.788Z" fill="#529B40"/>
<path d="M497.257 61.5015H590.136C605.052 61.5015 613.555 44.0334 603.933 32.6057C598.327 25.9336 588.073 20.9313 569.73 21.6573C569.73 21.6573 544.088 -26.9864 508.164 21.5847C508.164 21.5847 478.608 18.6806 476.342 37.5572L476.277 38.1163C475.949 41.0638 476.247 44.0474 477.152 46.8717C478.057 49.696 479.549 52.2973 481.53 54.5051C483.51 56.7129 485.935 58.4774 488.645 59.6831C491.356 60.8889 494.29 61.5085 497.257 61.5015V61.5015ZM21.1103 479.365H113.961C128.876 479.365 137.38 461.897 127.758 450.477C122.145 443.797 111.898 438.802 93.5474 439.521C93.5474 439.521 67.913 390.877 31.9813 439.456C31.9813 439.456 2.43275 436.551 0.167047 455.464C0.167047 455.653 0.123456 455.842 0.10167 456.023C-0.220384 458.97 0.0834862 461.951 0.993403 464.772C1.90332 467.593 3.39876 470.191 5.38191 472.394C7.36505 474.597 9.79121 476.357 12.5016 477.559C15.212 478.76 18.1455 479.375 21.1103 479.365V479.365Z" fill="#F8F8FF"/>
</g>
<defs>
<linearGradient id="paint0_linear_64_3044" x1="84.4701" y1="159.675" x2="81.6828" y2="429.117" gradientUnits="userSpaceOnUse">
<stop offset="0.03" stop-color="white"/>
<stop offset="1" stop-color="white" stop-opacity="0"/>
</linearGradient>
<clipPath id="clip0_64_3044">
<rect width="608" height="531" fill="white"/>
</clipPath>
</defs>
</svg>
